<?xml version="1.0" encoding="UTF-8"?><svg xmlns="http://www.w3.org/2000/svg" xmlns:xlink="http://www.w3.org/1999/xlink" version="1.1" id="Layer_1" x="0px" y="0px" viewBox="0 0 30 30" xml:space="preserve"><path fill="#303C42" d="M29.925 19.237c-.008-.013-.837-1.364-1.432-3.262a60.41 60.41 0 0 1-.509-1.773c-.937-3.375-1.79-6.244-2.718-7.18-1.085-1.091-6.007-1.8-7.474-1.989C17.25 4.284 16.164 4 15.5 4 13.466 4 6 6.366 6 10.5c0 1.917-1.792 4.699-3.373 7.153C1.217 19.84 0 21.729 0 23c0 3 3.05 3 5.5 3 1.347 0 2.028-.272 2.688-.536l.315-.123a.498.498 0 0 0 .298-.312C9.46 23.02 11 17.97 11 14.5a.5.5 0 0 1 1 0c0 3.185-1.21 7.54-1.93 9.851a.502.502 0 0 0 .476.649c.323 0 .678.005 1.052.01 3.056.037 5.293.003 6.087-.782.207-.204.315-.455.315-.728v-1.812c.197.145.398.286.602.428 1.125.783 2.289 1.592 3.464 3.634.09.154.255.25.434.25 5.875 0 7.47-6.319 7.486-6.382a.502.502 0 0 0-.061-.381zm-9.157-8.367c.096.345.28.97.459 1.425-.085.141-.157.305-.234.48-.13.301-.275.633-.496.875-.466-.298-.932-.866-1.36-1.545.158-.59.246-1.19.265-1.79l1.366.555zm2.014 14.124c-1.24-2.05-2.495-2.924-3.608-3.699-.748-.52-1.394-.97-1.93-1.713-1.046-1.446-1.078-2.142-1.115-2.946-.009-.181-.018-.365-.035-.558-.117-1.244-.882-3.054-1.949-4.61-.99-1.447-1.627-3.428-.681-4.363.04-.04.135-.132.415-.075 1.049.218 2.733 2.076 3.116 3.031.469 1.17 1.737 3.966 3.377 4.65a.499.499 0 0 0 .472-.046c.59-.396.865-1.028 1.066-1.49.066-.15.154-.355.182-.39a.501.501 0 0 0 .162-.633c-.194-.39-.49-1.418-.586-1.781a.5.5 0 0 0-.295-.334l-2.01-.818a7.867 7.867 0 0 0-.784-2.678l-.21-.419c2.38.346 5.57.984 6.188 1.606.82.825 1.85 4.529 2.463 6.742.202.724.377 1.356.518 1.805a17.395 17.395 0 0 0 1.423 3.295c-.29.956-1.833 5.245-6.179 5.424z"/><metadata><rdf:RDF xmlns:rdf="http://www.w3.org/1999/02/22-rdf-syntax-ns#" xmlns:rdfs="http://www.w3.org/2000/01/rdf-schema#" xmlns:dc="http://purl.org/dc/elements/1.1/"><rdf:Description about="https://iconscout.com/legal#licenses" dc:title="clean,cleaning,housekeeping,hand,rag" dc:description="clean,cleaning,housekeeping,hand,rag" dc:publisher="Iconscout" dc:date="2017-11-29" dc:format="image/svg+xml" dc:language="en"><dc:creator><rdf:Bag><rdf:li>Those Icons</rdf:li></rdf:Bag></dc:creator></rdf:Description></rdf:RDF></metadata></svg>