<svg xmlns="http://www.w3.org/2000/svg" data-name="Layer 1" viewBox="0 0 512 512"><g data-name="&lt;Group&gt;"><g data-name="&lt;Group&gt;"><g data-name="&lt;Group&gt;"><path fill="#ed664c" d="M455.73,166.19a21.019,21.019,0,0,1,14.47,25.95L427.95,340.89A21.011,21.011,0,0,1,402,355.36l-44.34-12.59,16.88-13.76,46.45-37.88a15.175,15.175,0,0,0-16.03-25.5l-.2-.41,20.58-16.78a15.175,15.175,0,1,0-19.18-23.52l11.76-9.59a15.175,15.175,0,1,0-19.18-23.52L381.1,206.19a15.171,15.171,0,0,0-19.17-23.52l-53.1,43.28a31.5,31.5,0,0,0,3.8-43.71,6.447,6.447,0,0,0-9.07-.93l-19.32,15.75-.41-.51,21.64-71.84.31-1.1Z" data-name="&lt;Path&gt;"/></g><g data-name="&lt;Group&gt;"><path fill="#fdc75b" d="M308.83,225.95l53.1-43.28a15.171,15.171,0,0,1,19.17,23.52l17.64-14.38a15.175,15.175,0,1,1,19.18,23.52l-11.76,9.59a15.175,15.175,0,0,1,19.18,23.52l-20.58,16.78.2.41a15.174,15.174,0,0,1,16.03,25.5l-46.45,37.88-16.88,13.76-7.23,5.89L325.62,368.9a51.355,51.355,0,0,1-40.55,10.94l-.35-.11-32.34,26.36a30.343,30.343,0,0,1-42.7-4.34l-34.51-42.33a30.342,30.342,0,0,1,4.34-42.7l19.64-16.01,5.76-5.37a45.542,45.542,0,0,1,15.44-46.19l8.42-6.86,55.47-45.23,19.32-15.75a6.447,6.447,0,0,1,9.07.93,31.5,31.5,0,0,1-3.8,43.71Z" data-name="&lt;Path&gt;"/></g><g data-name="&lt;Group&gt;"><path fill="#fdc75b" d="M286.71,118.19l19.07,5.42-.31,1.1-21.64,71.84.41.51-55.47,45.23-.21-.26,32.2-109.37A21.011,21.011,0,0,1,286.71,118.19Z" data-name="&lt;Path&gt;"/></g></g><g data-name="&lt;Group&gt;"><path d="M457.643,159.457l-169.02-48a28.01,28.01,0,0,0-34.578,19.227L222.292,238.535l-6.368,5.192a52.834,52.834,0,0,0-18.65,49.162l-2.727,2.543-19.46,15.862a37.341,37.341,0,0,0-5.343,52.549l34.512,42.333a37.388,37.388,0,0,0,52.547,5.34l29.928-24.4a58.545,58.545,0,0,0,43.314-12.8L359.261,350.5l40.826,11.594a28,28,0,0,0,34.6-19.292l42.252-148.755A28.054,28.054,0,0,0,457.643,159.457Zm-190.15-24.884a14.01,14.01,0,0,1,17.3-9.649l12.251,3.479-19.638,65.2L241.5,222.879Zm53.706,228.9A44.538,44.538,0,0,1,286.635,373a7,7,0,0,0-6.338,1.308l-32.343,26.361a23.341,23.341,0,0,1-32.849-3.339l-34.511-42.333a23.341,23.341,0,0,1,3.339-32.848l19.64-16.01c.12-.1.238-.2.351-.306l5.76-5.37a7,7,0,0,0,2.023-6.793,38.739,38.739,0,0,1,13.064-39.09l82.775-67.485a24.5,24.5,0,0,1-3.265,33.537l-.187.158c-.108.091-.213.181-.393.324L275.737,243.9a7,7,0,0,0,8.846,10.852l27.886-22.731c.22-.174.436-.355.653-.539l.185-.154,53.055-43.245a8.037,8.037,0,0,1,5.138-1.827,8.17,8.17,0,0,1,5.178,14.5h0l-69.969,57.049a7,7,0,0,0,8.848,10.85l69.965-57.045.008-.008,17.638-14.379A8.175,8.175,0,0,1,413.5,209.905l-11.756,9.587,0,0-17.64,14.38,0,0-58.209,47.458a7,7,0,1,0,8.847,10.851l58.207-47.458h0l17.642-14.381a8.16,8.16,0,0,1,11.5,1.168,8.191,8.191,0,0,1-1.168,11.5l-20.58,16.779a7.058,7.058,0,0,0-.969.963,21.966,21.966,0,0,0-1.97,1.428l-40.58,33.08a7,7,0,1,0,8.846,10.851l40.588-33.087a8.287,8.287,0,0,1,1.686-1.063,8.173,8.173,0,0,1,8.629,13.739ZM463.467,190.228l-42.25,148.749a14.014,14.014,0,0,1-17.305,9.65L372.5,339.706l52.916-43.15a22.153,22.153,0,0,0-3.2-36.53l7.56-6.164a22.181,22.181,0,0,0-3.81-36.871,22.164,22.164,0,0,0-31.641-30.607l-1.666,1.358a22.171,22.171,0,0,0-35.144-10.5l-30.8,25.107c0-.08.007-.16.007-.241a38.565,38.565,0,0,0-8.654-24.293,13.464,13.464,0,0,0-18.919-1.933l-2.348,1.914,13.727-45.57,143.3,40.7A14.036,14.036,0,0,1,463.467,190.228Z" data-name="&lt;Compound Path&gt;"/><path d="M235.366 111.952a7 7 0 0 0 1.59-13.817c-4.438-1.039-9.013-1.96-13.6-2.737-.1-.017-.21-.033-.315-.045L203.1 92.9q-.15-.016-.3-.03a260.746 260.746 0 0 0-28.09-.678 7 7 0 0 0 .412 14 246.114 246.114 0 0 1 26.421.627l19.63 2.413c4.247.723 8.481 1.577 12.588 2.538A6.993 6.993 0 0 0 235.366 111.952zM135.441 110.161c6.12-1.039 12.379-1.9 18.606-2.56a7 7 0 1 0-1.475-13.922c-6.516.69-13.069 1.592-19.474 2.679a7 7 0 1 0 2.343 13.8zM99.475 103.866a255.941 255.941 0 0 0-31.013 10.5 7 7 0 1 0 5.6 12.832 245.768 245.768 0 0 1 29.167-9.842 7 7 0 1 0-3.75-13.488zM221.275 176.8a7 7 0 1 0 2.87-13.7c-3.821-.8-7.674-1.5-11.791-2.138-4.347-.668-8.863-1.227-13.421-1.66a7 7 0 1 0-1.327 13.937c4.293.408 8.54.934 12.61 1.559C214.079 175.4 217.7 176.053 221.275 176.8zM134.631 175.091a7.245 7.245 0 0 0 .991-.07 285.468 285.468 0 0 1 29.777-2.676 7 7 0 0 0-.244-14c-.085 0-.17 0-.254 0a299.8 299.8 0 0 0-31.244 2.8 7 7 0 0 0 .974 13.932zM63.534 193.882a6.979 6.979 0 0 0 2.8-.587c.147-.065 14.923-6.468 38.078-12.19a7 7 0 0 0-3.359-13.591c-24.3 6-39.68 12.671-40.322 12.951a7 7 0 0 0 2.805 13.417zM173.472 246.033a214.1 214.1 0 0 1 27.332 4.153 7 7 0 1 0 3.011-13.672 227.833 227.833 0 0 0-29.127-4.428 7 7 0 1 0-1.216 13.947zM134.187 231.705c-7.823.508-15.907 1.361-24.03 2.537a7 7 0 0 0 .994 13.929 7.241 7.241 0 0 0 1.012-.073c7.76-1.123 15.474-1.939 22.93-2.422a7 7 0 0 0-.906-13.971zM64.576 244.225A242.625 242.625 0 0 0 38.2 253.406a7 7 0 0 0 5.6 12.83 234.629 234.629 0 0 1 24.724-8.58 7 7 0 1 0-3.947-13.431z" data-name="&lt;Path&gt;"/></g></g></svg>