<svg xmlns="http://www.w3.org/2000/svg" data-name="Layer 1" viewBox="0 0 512 512"><path fill="#7177db" d="M508.0499,505V333.71078a66,66,0,0,0-42.9494-61.84391L397.40957,246.637a33,33,0,0,1-21.4747-30.922V192.74042H294.77131V215.715a33,33,0,0,1-21.4747,30.922l-67.69092,25.22991a66,66,0,0,0-42.94941,61.84391V411.4667l64.53424-.72945L226.73651,512H501.0499A7,7,0,0,0,508.0499,505Z"/><path fill="#ffd597" d="M69.19849,332.64423H38.5L4.43969,85.47845a6,6,0,0,1,5.94383-6.81908H95.90563a6,6,0,0,1,5.94832,6.78579Z"/><path fill="#313848" d="M38.5,332.64423H69.19847a0,0,0,0,1,0,0v70.0613a15.34922,15.34922,0,0,1-15.34922,15.34922h0A15.34922,15.34922,0,0,1,38.5,402.70552v-70.0613a0,0,0,0,1,0,0Z"/><path fill="#ffbc5b" d="M49.89551,78.65936V201.061a3.5,3.5,0,0,0,7,0V78.65936Z"/><path fill="#3b4a9b" d="M344.51216,424.01731l-6.16688,3.548a6,6,0,0,1-5.98425,0l-6.16689-3.548a6,6,0,0,1-3.00788-5.2007V325.44356H347.52v93.37305A6,6,0,0,1,344.51216,424.01731Z"/><circle cx="335.353" cy="362.674" r="3.5" fill="#7177db"/><circle cx="335.353" cy="383.674" r="3.5" fill="#7177db"/><circle cx="335.353" cy="404.674" r="3.5" fill="#7177db"/><path fill="#3b4a9b" d="M286.43518,308.396l45.33835,26.97926a7,7,0,0,0,7.15924,0l45.33737-26.97878a59.52739,59.52739,0,0,0,29.13477-55.79773L397.40955,246.637a32.99977,32.99977,0,0,1-21.47461-30.92176V192.74042H294.77136v22.97437A33.00022,33.00022,0,0,1,273.29651,246.637l-15.99512,5.96173A59.52661,59.52661,0,0,0,286.43518,308.396Z"/><path fill="#f9beac" d="M297.174 290.34967l38.1792 22.71881 38.1792-22.71881A38.86185 38.86185 0 0 0 389.74182 242.533a32.98542 32.98542 0 0 1-13.80688-26.818v-1.27185l-10.78467-21.7027H305.556l-10.78467 21.7027V215.715a32.98542 32.98542 0 0 1-13.80688 26.81811A38.86175 38.86175 0 0 0 297.174 290.34967zM447.97592 512h53.07385a7 7 0 0 0 7-7V393.37091H447.97592z"/><path fill="#ff7b4f" d="M407.2906,512V251.61251a10.94846,10.94846,0,0,1,13.48216-10.6396l42.67807,15.95844a12.98878,12.98878,0,0,1,8.43958,12.16607V512Z"/><circle cx="390.038" cy="44.116" r="40.616" fill="#1d2738"/><path fill="#313848" d="M280.57763,198.75354a32.88479,32.88479,0,0,1-27.52946-32.4458V99.25482A82.47643,82.47643,0,0,1,335.5246,16.7784h.00016a82.47642,82.47642,0,0,1,82.47642,82.47642v67.063a32.88478,32.88478,0,0,1-27.51787,32.44388l-54.86708,9.0762Z"/><path fill="#e58a7b" d="M386.84717,240.19763A32.953,32.953,0,0,1,375.93506,215.715v-1.27185l-10.78467-21.7027H305.55615l-10.78467,21.7027V215.715a32.88794,32.88794,0,0,1-.45678,5.3963,69.353,69.353,0,0,0,26.8164,24.60052l19.458,10.05206a19.46859,19.46859,0,0,0,17.87134,0l19.458-10.05206A69.43771,69.43771,0,0,0,386.84717,240.19763Z"/><path fill="#f9beac" d="M390.74545,106.787a11.68164,11.68164,0,0,1,10.73073,11.64025V163.036a69.41973,69.41973,0,0,1-37.55778,61.67588l-19.458,10.05205a19.46879,19.46879,0,0,1-17.87138,0l-19.458-10.05205A69.41973,69.41973,0,0,1,269.5733,163.036V115.1009a11.64826,11.64826,0,0,1,6.87828-10.64526,96.31122,96.31122,0,0,0,34.91579-26.52379,5.82751,5.82751,0,0,1,8.27966-.69692,125.47132,125.47132,0,0,0,30.8442,19.36244A125.68735,125.68735,0,0,0,390.74545,106.787Z"/><path fill="#e58a7b" d="M401.4761 163.03591h0V128.821h0A16.52508 16.52508 0 0 1 418.00118 145.346v1.16479A16.52508 16.52508 0 0 1 401.4761 163.03591zM269.57326 163.03591h0V128.821h0A16.52509 16.52509 0 0 0 253.04817 145.346v1.16479A16.52509 16.52509 0 0 0 269.57326 163.03591z"/><path fill="#313848" d="M357.4248 134.502a3.50051 3.50051 0 0 1-1.33007-6.73877 32.49827 32.49827 0 0 1 24.7207-.00048 3.49968 3.49968 0 1 1-2.6543 6.47656 25.74013 25.74013 0 0 0-10.35254-1.91016 25.45746 25.45746 0 0 0-9.05566 1.90967A3.48463 3.48463 0 0 1 357.4248 134.502zM368.45605 151.22607a3.50017 3.50017 0 0 1-3.5-3.5v-7.0205a3.5 3.5 0 1 1 7 0v7.0205A3.50017 3.50017 0 0 1 368.45605 151.22607zM291.5625 134.502a3.50051 3.50051 0 0 1-1.33008-6.73877 32.498 32.498 0 0 1 24.7207-.00048 3.49968 3.49968 0 1 1-2.65429 6.47656 25.71378 25.71378 0 0 0-10.35352-1.91016 25.45229 25.45229 0 0 0-9.05469 1.90967A3.48458 3.48458 0 0 1 291.5625 134.502zM302.59375 151.22607a3.50017 3.50017 0 0 1-3.5-3.5v-7.0205a3.5 3.5 0 1 1 7 0v7.0205A3.50017 3.50017 0 0 1 302.59375 151.22607z"/><path fill="#e58a7b" d="M335.5,215.876q-.3999,0-.7998-.00977a32.43192,32.43192,0,0,1-11.53711-2.43213,3.5,3.5,0,0,1,2.6582-6.47558,25.44953,25.44953,0,0,0,9.05664,1.90966,25.83052,25.83052,0,0,0,10.35059-1.91015,3.50005,3.50005,0,0,1,2.65625,6.47656A32.86717,32.86717,0,0,1,335.5,215.876Z"/><circle cx="335.525" cy="119.827" r="6.814" fill="#f96263"/><path fill="#e58a7b" d="M345.33613,175.35371a9.81138,9.81138,0,0,1-9.81138,9.81139h0a9.81138,9.81138,0,0,1-9.81138-9.81139Z"/><path fill="#ffbc5b" d="M24.28809 78.93262l8.04736 102.74609a3.49982 3.49982 0 0 0 3.48535 3.22656c.0918 0 .18408-.00341.27734-.01074a3.50007 3.50007 0 0 0 3.21582-3.76269L31.28809 78.65936h-6.9939C24.29419 78.751 24.28076 78.83972 24.28809 78.93262zM70.15234 184.90527a3.49982 3.49982 0 0 0 3.48047-3.17187L83.31494 78.98779c.0105-.11145-.0022-.21869-.00207-.32843H76.31519l-9.65113 102.4173a3.49936 3.49936 0 0 0 3.15625 3.813C69.93164 184.90039 70.04248 184.90527 70.15234 184.90527z"/><path fill="#f9beac" d="M41.27208,322.80518h0a5.01527,5.01527,0,0,1,5.01527,5.01527v42.72134a5.01527,5.01527,0,0,1-5.01527,5.01527h0a13.25593,13.25593,0,0,1-13.25593-13.25593v-26.24a13.25593,13.25593,0,0,1,13.25593-13.25593Z" transform="rotate(174.716 37.152 349.181)"/><path fill="#ffbc5b" d="M69.53369,330.10706l-7.41162-4.99561a7.63256,7.63256,0,0,0-11.80664,7.53278H69.19849Z"/><path fill="#1d2738" d="M69.19849,332.64423H50.31543a7.62512,7.62512,0,0,0,2.96838,4.918l7.40418,5.53033v27.77606a13.7556,13.7556,0,0,0,3.42358,9.081l5.08692,5.78741Z"/><path fill="#ffbc5b" d="M53.14453,237.2959a3.95019,3.95019,0,0,1-3.95019-3.9502V221a3.9502,3.9502,0,1,1,7.90039,0v12.3457A3.95019,3.95019,0,0,1,53.14453,237.2959Z"/><path fill="#f9beac" d="M227.19043,393.37091H162.6543l.00195,18.09576h-.00195L91.3833,339.074a51.31206,51.31206,0,0,0-7.885-6.54956l-12.8656-8.67182a7.63666,7.63666,0,0,0-8.83826,12.45081l7.40406,5.53033v32.96192l94.18884,107.15911a30,30,0,0,0,50.93152-10.52447l12.87158-39.06488Z"/><path fill="#3b4a9b" d="M222.79,505V382.53748a4.06489,4.06489,0,0,1,3.56219-4.10143,3.951,3.951,0,0,1,4.33821,3.93163V512H229.79A7,7,0,0,1,222.79,505Z"/><path fill="#e58a7b" d="M162.6543,411.46667l7.54508,8.23992a1,1,0,0,0,1.65466-1.07388l-9.19776-21.166Z"/></svg>